HIERARCHY
ROOT Hips
{
	OFFSET 0.00 0.00 0.00
	CHANNELS 6 Xposition Yposition Zposition Xrotation Yrotation Zrotation
	JOINT LeftUpLeg
	{
		OFFSET 2.83210 0.00000 0.00000
		CHANNELS 3 Xrotation Yrotation Zrotation
		JOINT LeftLeg
		{
			OFFSET 0.00000 -16.27150 0.00000
			CHANNELS 3 Xrotation Yrotation Zrotation
			JOINT LeftFoot
			{
				OFFSET 0.00000 -14.95190 0.00000
				CHANNELS 3 Xrotation Yrotation Zrotation
				JOINT LeftToeBase
				{
					OFFSET 0.00000 -1.07991 4.03030
					CHANNELS 3 Xrotation Yrotation Zrotation
					End Site
					{
						OFFSET 0.00000 0.00000 2.95275
					}
				}
			}
		}
	}
	JOINT RightUpLeg
	{
		OFFSET -2.83210 0.00000 0.00000
		CHANNELS 3 Xrotation Yrotation Zrotation
		JOINT RightLeg
		{
			OFFSET 0.00000 -16.27150 0.00000
			CHANNELS 3 Xrotation Yrotation Zrotation
			JOINT RightFoot
			{
				OFFSET 0.00000 -14.95190 0.00000
				CHANNELS 3 Xrotation Yrotation Zrotation
				JOINT RightToeBase
				{
					OFFSET 0.00000 -1.07991 4.03030
					CHANNELS 3 Xrotation Yrotation Zrotation
					End Site
					{
						OFFSET 0.00000 0.00000 2.95275
					}
				}
			}
		}
	}
	JOINT Spine
	{
		OFFSET 0.00000 0.03937 0.00000
		CHANNELS 3 Xrotation Yrotation Zrotation
		JOINT Spine1
		{
			OFFSET 0.00000 8.01054 0.00000
			CHANNELS 3 Xrotation Yrotation Zrotation
			JOINT Neck
			{
				OFFSET 0.00000 8.21888 0.00000
				CHANNELS 3 Xrotation Yrotation Zrotation
				JOINT Head
				{
					OFFSET 0.00000 3.25664 0.00000
					CHANNELS 3 Xrotation Yrotation Zrotation
					End Site
					{
						OFFSET 0.00000 4.52755 0.00000
					}
				}
			}
			JOINT LeftShoulder
			{
				OFFSET 0.00000 8.21888 0.00000
				CHANNELS 3 Xrotation Yrotation Zrotation
				JOINT LeftArm
				{
					OFFSET 6.52904 -0.00002 0.00000
					CHANNELS 3 Xrotation Yrotation Zrotation
					JOINT LeftForeArm
					{
						OFFSET 10.44840 -0.00004 0.00000
						CHANNELS 3 Xrotation Yrotation Zrotation
						JOINT LeftHand
						{
							OFFSET 8.94727 -0.00003 0.00000
							CHANNELS 3 Xrotation Yrotation Zrotation
							JOINT LeftHandThumb
							{
								OFFSET 0.00000 0.00000 0.00000
								CHANNELS 3 Xrotation Yrotation Zrotation
								End Site
								{
									OFFSET 0.00000 0.00000 3.93700
								}
							}
							JOINT L_Wrist_End
							{
								OFFSET 3.93700 -0.00001 0.00000
								CHANNELS 3 Xrotation Yrotation Zrotation
							}
						}
					}
				}
			}
			JOINT RightShoulder
			{
				OFFSET 0.00000 8.21888 0.00000
				CHANNELS 3 Xrotation Yrotation Zrotation
				JOINT RightArm
				{
					OFFSET -6.52904 -0.00002 0.00000
					CHANNELS 3 Xrotation Yrotation Zrotation
					JOINT RightForeArm
					{
						OFFSET -10.44840 -0.00004 0.00000
						CHANNELS 3 Xrotation Yrotation Zrotation
						JOINT RightHand
						{
							OFFSET -8.94727 -0.00003 0.00000
							CHANNELS 3 Xrotation Yrotation Zrotation
							JOINT RightHandThumb
							{
								OFFSET 0.00000 0.00000 0.00000
								CHANNELS 3 Xrotation Yrotation Zrotation
								End Site
								{
									OFFSET 0.00000 0.00000 3.93700
								}
							}
							JOINT R_Wrist_End
							{
								OFFSET -5.39369 -0.00002 0.00000
								CHANNELS 3 Xrotation Yrotation Zrotation
							}
						}
					}
				}
			}
		}
	}
}
MOTION
Frames: 12
Frame Time: 0.008333
 12.0768 33.4338 -40.1904 6.3970 -0.5353 7.2304 -19.9054 35.4272 22.6010 3.7968 -0.0000 0.0000 49.8787 23.1158 0.2652 21.2439 0.0000 -0.0000 -1.0014 -12.5194 1.6822 -2.4917 -0.0000 0.0000 -7.3372 -33.1521 9.8039 20.4850 -0.0000 -0.0000 -8.3364 4.8891 -9.4472 10.1881 -5.1061 1.5606 -24.6907 -2.9045 -1.1324 -11.7018 -26.2060 -7.4015 12.0142 21.1749 4.3227 -46.9984 -26.7280 -26.0432 -0.0001 -20.7491 -0.0000 36.2193 -4.0429 28.1101 -0.0000 0.0000 -0.0000 -0.0000 0.0000 -0.0000 13.4761 -16.8416 -3.1055 -52.4134 21.4146 27.2113 -0.0001 18.0012 0.0000 25.7883 -6.5777 -66.1958 0.0000 0.0000 0.0000 0.0000 0.0000 0.0000
 12.0745 33.4337 -40.1968 6.4002 -0.5190 7.1835 -19.9602 35.3808 22.6503 3.8239 -0.0000 -0.0000 49.7618 23.1333 0.4946 21.2009 0.0000 -0.0000 -0.9781 -12.5538 1.7364 -2.5421 -0.0000 0.0000 -7.2823 -33.1550 9.9852 20.5835 0.0000 -0.0000 -8.3754 4.8920 -9.4728 10.2499 -5.1044 1.6059 -24.8899 -2.0097 0.2798 -12.3330 -26.7844 -9.3361 12.0463 21.1525 4.2826 -46.8544 -26.7808 -25.8753 -0.0001 -20.6525 -0.0000 36.2179 -4.1687 28.1915 0.0000 -0.0000 0.0000 0.0000 -0.0000 0.0000 13.4735 -16.8223 -3.0768 -52.2088 21.4926 27.0690 -0.0001 18.1667 0.0000 25.2243 -7.0658 -66.0965 0.0000 -0.0000 -0.0000 0.0000 -0.0000 -0.0000
 12.0684 33.4315 -40.2059 6.3964 -0.5197 7.1457 -20.0741 35.4072 22.7449 3.8862 -0.0000 0.0000 49.8066 23.1444 0.3991 21.0593 0.0000 0.0000 -0.9721 -12.5252 1.7847 -2.5548 0.0000 0.0000 -7.2515 -33.1779 10.0936 20.5597 0.0000 0.0000 -8.3825 4.9189 -9.5203 10.3193 -5.0572 1.6412 -25.1484 -1.1327 1.6759 -12.9911 -27.3463 -11.2329 11.9478 21.2186 4.4298 -46.9526 -26.7648 -26.0966 -0.0001 -20.5717 -0.0000 36.3309 -4.1342 28.0394 -0.0000 0.0000 -0.0000 -0.0000 0.0000 -0.0000 13.4042 -16.9090 -3.0395 -52.2356 21.5060 27.1039 -0.0001 18.0937 0.0000 25.3171 -6.9738 -65.9444 -0.0000 0.0000 0.0000 -0.0000 0.0000 0.0000
 12.0650 33.4309 -40.2103 6.3883 -0.4866 7.1098 -20.0864 35.3431 22.7634 3.8862 -0.0000 0.0000 49.7391 23.1747 0.4950 21.1510 -0.0000 0.0000 -0.9581 -12.5724 1.8242 -2.5507 0.0000 -0.0000 -7.2736 -33.1328 10.1313 20.5220 -0.0000 0.0000 -8.4155 4.9135 -9.5526 10.3508 -5.0609 1.6749 -25.4368 -0.2750 3.0091 -13.4938 -27.7956 -13.0445 12.0024 21.1559 4.4350 -46.6612 -26.8039 -25.8708 -0.0001 -20.5639 -0.0000 36.0760 -4.0112 28.0470 0.0000 0.0000 -0.0000 0.0000 0.0000 -0.0000 13.4193 -16.8637 -3.0066 -52.0400 21.5916 26.9420 -0.0001 18.0138 0.0000 25.1899 -7.0722 -65.9591 0.0000 0.0000 0.0000 0.0000 0.0000 0.0000
 12.0612 33.4294 -40.2205 6.3767 -0.4905 7.0733 -20.1818 35.3855 22.8482 3.9314 -0.0000 0.0000 49.7548 23.1737 0.4616 21.1068 -0.0000 -0.0000 -0.9695 -12.5288 1.8597 -2.5182 0.0000 0.0000 -7.2583 -33.1450 10.1384 20.5010 0.0000 0.0000 -8.3959 4.9485 -9.5986 10.4039 -4.9867 1.7218 -25.8994 0.7020 4.6982 -14.2770 -28.3532 -15.5024 11.8649 21.2024 4.5878 -46.7485 -26.8098 -26.1186 -0.0001 -20.4488 -0.0000 36.1992 -4.1131 27.9076 -0.0000 0.0000 0.0000 -0.0000 0.0000 0.0000 13.3331 -16.9789 -2.9775 -52.0042 21.6120 26.9520 -0.0001 17.9154 0.0000 25.3054 -6.8977 -65.8821 0.0000 -0.0000 -0.0000 0.0000 -0.0000 -0.0000
 12.0601 33.4293 -40.2218 6.3658 -0.4548 7.0391 -20.1740 35.3216 22.8560 3.9171 -0.0000 -0.0000 49.7191 23.2119 0.4957 21.1999 0.0000 0.0000 -0.9693 -12.5603 1.8902 -2.4878 -0.0000 -0.0000 -7.2593 -33.1587 10.1784 20.5536 0.0000 0.0000 -8.4252 4.9255 -9.6290 10.4079 -5.0035 1.7619 -26.2947 1.5431 6.1170 -14.7782 -28.7484 -17.4898 11.9203 21.1474 4.5793 -46.4341 -26.8127 -25.8828 -0.0001 -20.4807 -0.0000 35.9879 -4.0252 27.8713 0.0000 0.0000 -0.0000 0.0000 0.0000 -0.0000 13.3493 -16.8961 -2.9566 -51.7716 21.6999 26.7625 -0.0001 17.8225 0.0000 25.2110 -7.0950 -65.9396 0.0000 0.0000 0.0000 0.0000 0.0000 0.0000
 12.0584 33.4316 -40.2327 6.3604 -0.4670 7.0074 -20.2479 35.3500 22.9150 3.9557 0.0000 -0.0000 49.6702 23.2123 0.6348 21.0856 -0.0000 0.0000 -0.9977 -12.5217 1.9179 -2.4451 -0.0000 -0.0000 -7.2457 -33.2008 10.2544 20.6911 -0.0000 -0.0000 -8.3914 4.9655 -9.6660 10.4515 -4.9179 1.8112 -26.8573 2.4430 7.7619 -15.5864 -29.1913 -19.9270 11.7800 21.1992 4.7118 -46.5961 -26.7889 -26.1899 -0.0001 -20.3707 -0.0000 36.1519 -4.1016 27.8066 -0.0000 -0.0000 -0.0000 -0.0000 -0.0000 -0.0000 13.2962 -17.0442 -2.9022 -51.8103 21.7246 26.7883 -0.0001 17.7092 0.0000 25.3277 -6.7786 -65.9354 -0.0000 -0.0000 -0.0000 -0.0000 -0.0000 -0.0000
 12.0578 33.4314 -40.2345 6.3534 -0.4434 6.9830 -20.2517 35.3170 22.9298 3.9444 0.0000 0.0000 49.7310 23.2426 0.4621 21.1337 0.0000 -0.0000 -1.0232 -12.5556 1.9276 -2.3667 -0.0000 -0.0000 -7.2677 -33.1502 10.3008 20.5942 0.0000 0.0000 -8.4197 4.9497 -9.6916 10.4427 -4.9284 1.8505 -27.2767 3.1433 8.9951 -15.9703 -29.4473 -21.6284 11.8647 21.1366 4.7193 -46.3294 -26.7338 -26.0007 -0.0001 -20.4170 -0.0000 35.8746 -4.0470 27.7914 0.0000 -0.0000 -0.0000 0.0000 -0.0000 -0.0000 13.3363 -16.9606 -2.8855 -51.6630 21.7825 26.6270 -0.0001 17.6131 0.0000 25.2573 -7.0620 -65.9949 -0.0000 0.0000 -0.0000 -0.0000 0.0000 -0.0000
 12.0589 33.4334 -40.2444 6.3553 -0.4516 6.9627 -20.3086 35.3531 22.9610 3.9601 -0.0000 0.0000 49.6677 23.2478 0.6264 21.0900 -0.0000 0.0000 -1.0802 -12.5380 1.9358 -2.2825 -0.0000 0.0000 -7.2889 -33.1660 10.3245 20.6335 -0.0000 0.0000 -8.3897 4.9880 -9.7226 10.4624 -4.8455 1.9069 -27.8846 3.7774 10.3939 -16.5461 -29.7347 -23.7083 11.7783 21.1621 4.8515 -46.5350 -26.6427 -26.3293 -0.0001 -20.2987 -0.0000 36.1147 -4.1638 27.7708 -0.0000 -0.0000 0.0000 -0.0000 -0.0000 0.0000 13.2837 -17.1151 -2.8211 -51.7712 21.7989 26.6635 -0.0001 17.5410 0.0000 25.2683 -6.5988 -65.9619 -0.0000 -0.0000 0.0000 -0.0000 -0.0000 0.0000
 12.0596 33.4346 -40.2482 6.3586 -0.4482 6.9492 -20.3088 35.3369 22.9573 3.9491 0.0000 -0.0000 49.6713 23.2970 0.6111 21.0724 -0.0000 0.0000 -1.1236 -12.5804 1.9336 -2.2020 0.0000 0.0000 -7.3272 -33.0326 10.4515 21.0120 0.0000 -0.0000 -8.4126 4.9772 -9.7411 10.4424 -4.8494 1.9482 -28.1895 4.2556 11.2200 -16.8023 -29.8768 -24.8058 11.8766 21.1297 4.8477 -46.2988 -26.6125 -26.1855 -0.0001 -20.3050 -0.0000 35.7153 -4.0998 27.7067 0.0000 -0.0000 0.0000 0.0000 -0.0000 0.0000 13.3285 -16.9962 -2.7821 -51.6651 21.8150 26.4587 -0.0001 17.4985 0.0000 25.2074 -6.9693 -66.0094 -0.0000 -0.0000 -0.0000 -0.0000 -0.0000 -0.0000
 12.0625 33.4360 -40.2560 6.3609 -0.4445 6.9395 -20.3366 35.3518 22.9563 3.9547 0.0000 0.0000 49.6182 23.3446 0.7320 20.9436 -0.0000 -0.0000 -1.1808 -12.6059 1.9227 -2.1146 0.0000 -0.0000 -7.3100 -33.0150 10.5733 20.9471 -0.0000 0.0000 -8.3931 5.0051 -9.7520 10.4442 -4.7922 1.9940 -28.4411 4.5059 11.7859 -17.0941 -30.0136 -25.6363 11.8384 21.1613 4.9306 -46.4063 -26.6035 -26.4219 -0.0001 -20.1515 -0.0000 35.9206 -4.4725 27.6637 0.0000 -0.0000 0.0000 0.0000 -0.0000 0.0000 13.2459 -17.1021 -2.7326 -51.8455 21.7713 26.5080 -0.0001 17.4479 0.0000 25.3764 -6.7200 -65.9834 -0.0000 -0.0000 -0.0000 -0.0000 -0.0000 -0.0000
 12.0656 33.4372 -40.2602 6.3579 -0.4523 6.9388 -20.3314 35.3440 22.9438 3.9708 -0.0000 -0.0000 49.5765 23.3872 0.7407 20.9756 0.0000 0.0000 -1.1887 -12.6397 1.9175 -2.1087 0.0000 -0.0000 -7.3006 -32.9904 10.5609 20.9253 0.0000 -0.0000 -8.3978 5.0040 -9.7476 10.4401 -4.7907 2.0144 -28.4942 4.5741 11.9005 -17.1344 -30.0747 -25.7013 11.8749 21.1695 4.9604 -46.3422 -26.5651 -26.4415 -0.0001 -20.0036 -0.0000 35.9169 -4.3581 27.6849 0.0000 -0.0000 0.0000 0.0000 -0.0000 0.0000 13.2292 -17.0778 -2.6790 -51.8579 21.7852 26.4280 -0.0001 17.5074 0.0000 25.1918 -6.8556 -65.9834 0.0000 0.0000 0.0000 0.0000 0.0000 0.0000
